<?xml version="1.0" encoding="UTF-8" standalone="no"?>
<svg width="52px" height="124px" viewBox="0 0 52 124" version="1.1" xmlns="http://www.w3.org/2000/svg" xmlns:xlink="http://www.w3.org/1999/xlink">
    <!-- Generator: Sketch 39.1 (31720) - http://www.bohemiancoding.com/sketch -->
    <title>key</title>
    <desc>Created with Sketch.</desc>
    <defs></defs>
    <g id="Page-1" stroke="none" stroke-width="1" fill="none" fill-rule="evenodd">
        <path d="M9.64490765,89.3885393 L6.50886868,92.5245783 L15.5587636,101.574473 C16.3371882,102.352898 16.3379783,103.614183 15.553225,104.398937 L10.5192659,109.432896 C9.73778245,110.214379 8.46960073,110.213232 7.6948026,109.438434 L-1.35509235,100.388539 L-8.93753272,107.97098 C-10.111478,109.144925 -12.0198115,109.139933 -13.1791938,107.98055 L-21.6750256,99.4847187 C-22.843685,98.3160593 -22.8355367,96.4131396 -21.6654548,95.2430576 L28.4586362,45.1189666 C27.2583842,42.2278283 26.5958611,39.0571553 26.5958611,35.7317418 C26.5958611,22.2007654 37.5648847,11.2317418 51.0958611,11.2317418 C64.6268374,11.2317418 75.5958611,22.2007654 75.5958611,35.7317418 C75.5958611,49.2627181 64.6268374,60.2317418 51.0958611,60.2317418 C47.4890187,60.2317418 44.0642165,59.4523353 40.9806896,58.0527574 L17.5088687,81.5245783 L26.5587636,90.5744732 C27.3371882,91.3528978 27.3379783,92.6141832 26.553225,93.3989366 L21.5192659,98.4328956 C20.7377825,99.2143791 19.4696007,99.2132324 18.6948026,98.4384343 L9.64490765,89.3885393 Z M59.0958611,34.2317418 C62.6857119,34.2317418 65.5958611,31.3215926 65.5958611,27.7317418 C65.5958611,24.1418909 62.6857119,21.2317418 59.0958611,21.2317418 C55.5060102,21.2317418 52.5958611,24.1418909 52.5958611,27.7317418 C52.5958611,31.3215926 55.5060102,34.2317418 59.0958611,34.2317418 Z" id="key" stroke="#F8DA1B" stroke-width="2" transform="translate(26.524290, 60.625507) rotate(-45.000000) translate(-26.524290, -60.625507) "></path>
    </g>
</svg>