<?xml version="1.0" encoding="UTF-8" standalone="no"?>
<svg width="50px" height="122px" viewBox="0 0 50 122" version="1.1" xmlns="http://www.w3.org/2000/svg" xmlns:xlink="http://www.w3.org/1999/xlink">
    <!-- Generator: Sketch 39.1 (31720) - http://www.bohemiancoding.com/sketch -->
    <title>key</title>
    <desc>Created with Sketch.</desc>
    <defs></defs>
    <g id="Page-1" stroke="none" stroke-width="1" fill="none" fill-rule="evenodd">
        <path d="M8.49733475,88.449666 L5.36129578,91.585705 L13.7059898,99.930399 C14.8738861,101.098295 14.8720756,102.99364 13.692552,104.173163 L10.0847931,107.780922 C8.90947534,108.95624 7.00098738,108.953319 5.84202882,107.79436 L-2.50266525,99.449666 L-10.0851056,107.032106 C-11.2590509,108.206052 -13.1673844,108.201059 -14.3267667,107.041677 L-22.8225985,98.5458454 C-23.9912579,97.3771859 -23.9831096,95.4742663 -22.8130277,94.3041843 L27.3110633,44.1800933 C26.1108113,41.288955 25.4482882,38.118282 25.4482882,34.7928685 C25.4482882,21.2618921 36.4173118,10.2928685 49.9482882,10.2928685 C63.4792645,10.2928685 74.4482882,21.2618921 74.4482882,34.7928685 C74.4482882,48.3238448 63.4792645,59.2928685 49.9482882,59.2928685 C46.3414458,59.2928685 42.9166436,58.513462 39.8331167,57.1138841 L16.3612958,80.585705 L24.7059898,88.930399 C25.8738861,90.0982953 25.8720756,91.9936397 24.692552,93.1731633 L21.0847931,96.7809222 C19.9094753,97.95624 18.0009874,97.9533186 16.8420288,96.7943601 L8.49733475,88.449666 Z M57.9482882,33.2928685 C61.538139,33.2928685 64.4482882,30.3827193 64.4482882,26.7928685 C64.4482882,23.2030176 61.538139,20.2928685 57.9482882,20.2928685 C54.3584373,20.2928685 51.4482882,23.2030176 51.4482882,26.7928685 C51.4482882,30.3827193 54.3584373,33.2928685 57.9482882,33.2928685 Z" id="key" fill="#F8DA1B" transform="translate(25.376717, 59.477934) rotate(-45.000000) translate(-25.376717, -59.477934) "></path>
    </g>
</svg>